<svg width="100" height="100" viewBox="0 0 100 100" fill="none" xmlns="http://www.w3.org/2000/svg">
<g clip-path="url(#clip0)">
<path d="M0 12.5C0 9.18479 1.31696 6.00537 3.66117 3.66117C6.00537 1.31696 9.18479 0 12.5 0L87.5 0C90.8152 0 93.9946 1.31696 96.3388 3.66117C98.683 6.00537 100 9.18479 100 12.5V62.5C100 65.8152 98.683 68.9946 96.3388 71.3388C93.9946 73.683 90.8152 75 87.5 75H27.5875C25.93 75.0004 24.3406 75.6591 23.1688 76.8313L5.3375 94.6625C4.90082 95.1003 4.34407 95.3987 3.73773 95.5199C3.13138 95.6412 2.5027 95.5798 1.93125 95.3436C1.35979 95.1074 0.871262 94.7069 0.527483 94.193C0.183704 93.679 0.000131343 93.0746 0 92.4563L0 12.5ZM44.9625 29.7875C44.5505 29.1726 44.075 28.6028 43.5438 28.0875C42.7085 27.2273 41.7126 26.5393 40.6125 26.0625L40.5625 26.0375C39.0823 25.3502 37.4694 24.9961 35.8375 25C29.85 25 25 29.6625 25 35.4187C25 41.1687 29.85 45.8313 35.8375 45.8313C37.9813 45.8313 39.975 45.2375 41.6562 44.2062C40.8 46.6375 39.2188 49.2313 36.5938 51.8313C36.3465 52.0726 36.1513 52.362 36.0201 52.6816C35.8889 53.0013 35.8245 53.3444 35.831 53.6899C35.8374 54.0353 35.9145 54.3758 36.0575 54.6903C36.2005 55.0049 36.4064 55.2868 36.6625 55.5188C37.7438 56.5188 39.4563 56.4875 40.5 55.4563C48.8375 47.15 49.0625 38.2187 46.3813 32.2937C45.9874 31.418 45.5124 30.581 44.9625 29.7938V29.7875ZM68.75 44.2062C67.9 46.6375 66.3125 49.2313 63.6875 51.8313C63.4406 52.073 63.2459 52.3628 63.1152 52.6826C62.9846 53.0025 62.9208 53.3458 62.9278 53.6912C62.9348 54.0367 63.0125 54.377 63.1561 54.6913C63.2996 55.0056 63.506 55.2872 63.7625 55.5188C64.8375 56.5188 66.55 56.4875 67.5937 55.4563C75.9312 47.15 76.1562 38.2187 73.4812 32.2937C73.0853 31.4178 72.6082 30.5808 72.0563 29.7938C71.6447 29.1767 71.1692 28.6047 70.6375 28.0875C69.8023 27.2272 68.8064 26.5392 67.7063 26.0625L67.6562 26.0375C66.178 25.3511 64.5673 24.997 62.9375 25C56.9562 25 52.1 29.6625 52.1 35.4187C52.1 41.1687 56.9562 45.8313 62.9375 45.8313C65.0812 45.8313 67.075 45.2375 68.7563 44.2062H68.75Z" fill="#181520"/>
</g>
<defs>
<clipPath id="clip0">
<rect width="100" height="100" fill="white"/>
</clipPath>
</defs>
</svg>
